<svg xmlns="http://www.w3.org/2000/svg" viewBox="0 0 16 16">
  <defs id="defs3051">
    <style type="text/css" id="current-color-scheme">
      .ColorScheme-Text {
        color:#232629;
      }
      </style>
  </defs>
 <path style="fill:currentColor;fill-opacity:1;stroke:none" 
       d="M 10,2.5 C 9.0680195,2.5 8.2844627,3.1373007 8.0625,4 H 2 V 5 H 8.0625 C 8.2844627,5.8626993 9.0680195,6.5 10,6.5 10.931981,6.5 11.715537,5.8626993 11.9375,5 H 14 V 4 H 11.9375 C 11.715537,3.1373007 10.931981,2.5 10,2.5 Z m -5,5 C 4.0680191,7.5 3.2844626,8.137301 3.0625,9 H 2 v 1 H 3.0625 C 3.2844626,10.862699 4.0680191,11.5 5,11.5 5.9319809,11.5 6.7155374,10.862699 6.9375,10 H 7 9 14 V 9 H 9 7 6.9375 C 6.7155374,8.137301 5.9319809,7.5 5,7.5 Z m 0,1 c 0.55228,0 1,0.44772 1,1 0,0.55228 -0.44772,1 -1,1 -0.55228,0 -1,-0.44772 -1,-1 0,-0.55228 0.44772,-1 1,-1 z"
     class="ColorScheme-Text"
     />
</svg>
